<svg width="31" height="35" viewBox="0 0 31 35" fill="none" xmlns="http://www.w3.org/2000/svg">
<g clip-path="url(#clip0_134_41)">
<path d="M7.93333 21V26.6L9.4111 25.4333V21.4667L11.1222 24.1111L12.6778 22.8667V15.9444L11.2 17.1111V21.5444L9.33333 18.5889L7.15555 20.2222C7.15555 20.2222 7.93333 20.2222 7.93333 21ZM14.0778 16.3333V21.9333L15.6333 20.7667V18.2L17.3444 16.8778V19.4444L18.8222 18.3556V11.3556L17.3444 12.5222V15.0889L15.6333 16.4111V13.8444L13.3778 15.5556C13.3778 15.5556 14.0778 15.5556 14.0778 16.3333ZM20.0667 11.8222V17.4222L24.3444 14.1556C24.2667 13.0667 24.3444 12.3667 24.3444 12.3667L21.6222 14.4667V9.25556L19.3667 10.9667C19.2889 10.9667 20.0667 11.0444 20.0667 11.8222ZM28.5444 5.21111C27.5333 4.9 26.7555 4.12222 26.2889 2.87778L25.2778 0L22.9444 1.94444C22.1667 2.56667 21.3111 3.03333 20.3778 3.03333C19.1333 3.03333 17.8889 2.41111 17.1111 1.63333L15.5555 0.155556V1.71111C15.5555 1.78889 17.4222 4.2 20.3 4.2C22.4778 4.2 24.7333 1.94444 24.7333 1.94444C25.7444 6.37778 29.4 6.68889 29.4 6.68889L30.8778 5.98889L28.5444 5.21111ZM9.4111 29.8667C12.0555 30.5667 13.8444 30.6444 15.0111 31.1889C15.0111 31.1889 15.4 31.5778 15.5555 31.8111C15.7111 31.5778 16.1 31.1889 16.1 31.1889C17.2667 30.5667 18.9778 30.4889 21.7 29.8667C25.0444 29.0111 28.7 25.9778 28.7 21.3111C28.7 17.9667 26.8333 16.7222 26.8333 12.4444C26.8333 9.56667 27.9222 7.31111 27.9222 7.31111C27.9222 7.31111 25.4333 6.76667 24.2667 3.65556C24.2667 3.65556 22.6333 5.21111 20.3 5.21111C17.4222 5.21111 15.5555 3.18889 15.5555 3.18889C15.5555 3.18889 13.6889 5.21111 10.8111 5.21111C8.55555 5.21111 6.84444 3.65556 6.84444 3.65556C5.67777 6.84444 3.18888 7.31111 3.18888 7.31111C3.18888 7.31111 4.27777 9.56667 4.27777 12.4444C4.27777 16.7222 2.4111 17.9667 2.4111 21.3111C2.33333 26.0556 5.98888 29.0111 9.4111 29.8667ZM27.5333 21.3111C27.5333 25.2778 24.4222 27.9222 21.4667 28.7C19.3667 29.2444 16.8 29.5556 15.9444 30.0222C15.7111 30.1 15.5555 30.3333 15.5555 30.3333L15.1667 29.9444C14.3889 29.4778 11.8222 29.1667 9.64444 28.6222C9.56666 28.5444 9.48888 28.5444 9.4111 28.5444L26.0555 15.9444C26.6778 18.0444 27.5333 19.2889 27.5333 21.3111ZM26.3667 8.01111C26.0555 9.02222 25.6667 10.6556 25.6667 12.4444C25.6667 13.2222 25.6667 13.9222 25.8222 14.4667L7.85555 28C5.59999 26.8333 3.65555 24.5778 3.57777 21.5444L24.1111 5.98889C24.8889 7 25.6667 7.62222 26.3667 8.01111ZM5.52221 12.4444C5.52221 10.5778 5.13333 9.02222 4.82221 8.01111C5.59999 7.54444 6.6111 6.76667 7.38888 5.44444C8.24444 5.91111 9.4111 6.45556 10.8111 6.45556C12.9111 6.45556 14.6222 5.52222 15.5555 4.82222C16.4889 5.52222 18.2 6.45556 20.3 6.45556C20.6111 6.45556 20.9222 6.37778 21.2333 6.37778L3.73333 19.6C4.27777 17.5778 5.52221 15.9444 5.52221 12.4444ZM10.8111 4.12222C13.6889 4.12222 15.5555 1.63333 15.5555 1.63333V0.0777778L14.0778 1.55556C13.3 2.33333 12.0555 2.95556 10.8111 2.95556C9.87777 2.95556 9.02221 2.48889 8.24444 1.86667L5.9111 0L6.37777 1.86667C6.37777 1.86667 8.55555 4.12222 10.8111 4.12222ZM29.0111 12.4444C29.0111 10.8111 29.4 9.41111 29.8667 8.24444L30.8778 5.91111L29.4 6.61111C29.4 6.61111 27.9222 9.25556 27.9222 12.4444C27.9222 14.1556 28.5444 15.4778 29.1667 16.9556C28.5444 15.4778 27.9222 14.0778 27.9222 12.4444C27.9222 16.4889 29.7889 17.6556 29.7889 21.3111C29.7889 25.0444 27.4555 28.9333 23.1778 30.5667C22.7889 30.7222 22.4 30.8778 21.9333 30.9556C19.5222 31.5778 17.8889 31.7333 16.6444 32.2C16.4889 32.3556 15.4778 33.4444 15.4778 33.4444C15.4778 33.4444 14.4667 32.2778 14.3111 32.2C13.1444 31.7333 11.4333 31.5778 9.02221 30.9556C8.86666 30.9556 8.78888 30.8778 8.63333 30.8778C8.47777 30.8 8.32221 30.8 8.16666 30.7222H8.08888C3.65555 29.1667 1.24444 25.2 1.24444 21.3889C1.24444 18.0444 2.79999 16.8 3.1111 13.6889V12.5222C3.1111 9.33333 1.63333 6.68889 1.63333 6.68889C1.63333 6.68889 5.28888 6.37778 6.29999 1.86667L5.9111 0L4.82221 2.87778C4.35555 4.12222 3.65555 4.9 2.56666 5.21111L0.233326 5.91111L1.24444 8.24444C1.7111 9.41111 2.09999 10.8889 2.09999 12.4444C2.09999 16.4111 0.155548 17.1889 0.155548 21.3111C0.155548 22.5556 0.311104 23.8 0.699992 24.8111C0.77777 24.5778 1.0111 24.2667 1.16666 24.1111C1.0111 24.2667 0.77777 24.5 0.699992 24.7333C1.94444 28.3889 5.2111 30.9556 8.7111 31.8889C10.9667 32.5111 11.9778 32.5111 13.6889 32.9778C14.0778 33.2889 15.5555 35 15.5555 35C15.5555 35 17.1111 33.2889 17.2667 33.0556C18.9 32.5889 19.9889 32.5111 22.2444 31.9667C26.7555 30.8 30.8778 26.8333 30.8778 21.3111C30.8778 19.2889 30.4889 18.1222 30.0222 16.9556C29.5555 15.7111 29.0111 14.4667 29.0111 12.4444ZM4.89999 29.0889C5.9111 29.7889 6.92221 30.2556 8.0111 30.6444C6.99999 30.2556 5.9111 29.7111 4.89999 29.0889Z" fill="#628EBA"/>
</g>
<defs>
<clipPath id="clip0_134_41">
<rect width="31" height="35" fill="white"/>
</clipPath>
</defs>
</svg>
